<?xml version="1.0" encoding="UTF-8"?>
<svg width="75px" height="75px" viewBox="0 0 75 75" version="1.1" xmlns="http://www.w3.org/2000/svg" xmlns:xlink="http://www.w3.org/1999/xlink">
    <title>CDs-icon</title>
    <g id="CDs-icon" stroke="none" stroke-width="1" fill="none" fill-rule="evenodd">
        <g id="bofa_icon_certdeposit2_blk">
            <g id="_24_X_24_BOX">
                <rect id="Rectangle" x="0" y="0" width="75" height="75"></rect>
            </g>
            <g id="ICON_OUTLINE" transform="translate(6.250000, 12.500000)" fill="#000000" fill-rule="nonzero">
                <path d="M44.6875,15.9375 C44.6875,16.5625 44.0625,16.875 43.4375,16.875 C42.5,16.875 41.875,16.5625 41.25,16.25 L40.625,18.125 C41.5625,18.75 42.8125,18.75 43.75,18.75 C45.9375,18.75 47.1875,17.5 47.1875,15.9375 C47.1875,12.8125 43.125,13.125 43.125,11.875 C43.125,11.25 43.75,10.9375 44.0625,10.9375 C44.6875,10.9375 45.3125,10.9375 45.9375,11.25 L46.5625,9.6875 C45.625,9.6875 45,9.375 44.0625,9.375 C42.1875,9.375 40.9375,10.3125 40.9375,12.1875 C40.625,15 44.6875,14.6875 44.6875,15.9375 Z" id="Path"></path>
                <path d="M0,0 L0,50 L62.5,50 L62.5,0 L0,0 Z M59.375,46.875 L3.125,46.875 L3.125,3.125 L59.375,3.125 L59.375,46.875 Z" id="Shape"></path>
                <path d="M39.6875,32.1875 L40.625,29.0625 L37.5,28.125 L36.5625,25 L33.4375,25.9375 L31.25,23.4375 L29.0625,25.625 L25.9375,24.6875 L25,28.125 L21.875,29.0625 L22.8125,32.1875 L20.3125,34.375 L22.5,36.5625 L21.5625,39.6875 L24.6875,40.625 L25.625,43.75 L28.75,42.8125 L30.9375,45 L33.125,42.8125 L36.25,43.75 L37.1875,40.625 L40.3125,39.6875 L39.375,36.5625 L41.5625,34.375 L39.6875,32.1875 Z M36.25,35.625 L36.875,37.5 L35,38.125 L34.375,40 L32.5,39.375 L31.25,40.625 L30,39.375 L28.125,40 L27.5,38.125 L25.625,37.5 L26.25,35.625 L25,34.375 L26.25,33.125 L25.625,31.25 L27.5,30.625 L28.125,28.75 L30,29.375 L31.25,28.125 L32.5,29.375 L34.375,28.75 L35,30.625 L36.875,31.25 L36.25,33.125 L37.5,34.375 L36.25,35.625 Z" id="Shape"></path>
            </g>
            <path d="M33.4375,20.625 C32.8125,20.3125 32.1875,20 31.5625,20.3125 C29.6875,20.3125 28.75,21.875 28.75,24.6875 C28.75,27.1875 29.0625,28.75 31.25,28.75 C32.1875,28.75 32.8125,28.4375 33.4375,28.125 L34.375,30.3125 C33.4375,30.9375 32.1875,31.25 30.9375,31.25 C27.1875,31.25 25.9375,28.75 25.9375,24.6875 C25.9375,21.875 26.875,18.125 31.25,18.125 C32.1875,18.125 33.4375,18.4375 34.375,19.0625 L33.4375,20.625 Z" id="SVGID_1_" fill="#000000" fill-rule="nonzero"></path>
            <path d="M39.0625,29.0625 L39.0625,20.3125 L39.6875,20.3125 C40.9375,20.3125 42.8125,21.25 42.8125,24.6875 C42.8125,28.4375 40.9375,29.0625 39.6875,29.0625 L39.0625,29.0625 Z M40,18.4375 L36.5625,18.4375 L36.5625,31.25 L40,31.25 C44.375,31.25 45.625,28.125 45.625,24.6875 C45.625,21.25 44.0625,18.4375 40,18.4375 Z" id="SVGID_3_" fill="#000000" fill-rule="nonzero"></path>
        </g>
    </g>
</svg>