<?xml version="1.0" encoding="utf-8"?>
<!-- Generator: Adobe Illustrator 26.5.1, SVG Export Plug-In . SVG Version: 6.00 Build 0)  -->
<svg version="1.1" id="Layer_1" xmlns="http://www.w3.org/2000/svg" xmlns:xlink="http://www.w3.org/1999/xlink" x="0px" y="0px"
	 viewBox="0 0 829.4 237" style="enable-background:new 0 0 829.4 237;" xml:space="preserve">
<style type="text/css">
	.st0{fill:#012169;}
	.st1{fill-rule:evenodd;clip-rule:evenodd;fill:#012169;}
</style>
<g>
	<g>
		<path class="st0" d="M375,203.5h-9.7l-8.3,17.3l-8.1-17.3h-9.9V236h7.4v-22.2l10.6,22.2l10.5-22.1V236h7.5V203.5z M52.1,236h14.4
			c7.3,0,10.7-3.7,10.7-8.9c0-4.3-2.3-7.2-6.9-8.1c4.1-0.9,6-3.5,6-7.2c0-4.6-3.5-8.3-10.7-8.3H52.1V236z M155.9,203.5h-7.6v21.4
			l-13.8-21.4h-8.4V236h7.6v-21.4l13.8,21.4h8.4V203.5z M439.1,236h8.8l-8.1-13.8c4.4-1.2,6.5-4.4,6.5-8.9c0-5.9-3.6-9.8-11.7-9.8
			h-12.6V236h8v-12.7h1.9L439.1,236z M105.1,203.5h-8.3L84.6,236h8.2l2.2-6.6h11.8l2.2,6.6h8.4L105.1,203.5z M713.7,213.9
			c0-6.5-3.6-10.4-11.7-10.4h-12.6V236h8v-11.7h4.6C710.1,224.3,713.7,220.1,713.7,213.9L713.7,213.9z M187.6,236l-10.7-16.4V236
			h-8.1v-32.5h8.1v15.6l10.2-15.6h9l-10.7,15.6l11.7,16.9H187.6z M388.2,236h22.4v-6.4h-14.3v-7.1h11.3v-6.2h-11.3v-6.5h13.2
			l1.5-6.3h-22.7V236z M503.8,227.4c-3.2,2-5.8,2.8-8.5,2.8c-6.1,0-10.2-4.1-10.2-10.3c0-6.1,4.1-10.2,10-10.2
			c2.7,0,5.4,0.7,8.3,2.8v-7.5c-2.7-1.5-5.8-2.1-9.4-2.1c-10.8,0-17.7,7.5-17.7,16.9c0,9.7,6.7,17,17.8,17c3.7,0,6.8-0.6,9.7-2.1
			V227.4z M809.4,236h8.1v-12.1l11.9-20.4h-9.2l-6.6,12.6l-6.7-12.6h-9.3l11.8,20.2V236z M259.4,236h8.1v-12.7h10.3V217h-10.3v-7.2
			h12.4l1.5-6.3h-22V236z M457.9,236h8v-5.8v-26.7h-8V236z M64.6,222.2c2.6,0,4.4,1.4,4.4,4c0,2.8-1.8,4-4.4,4h-4.5v-8H64.6z
			 M700.7,209.6c3.2,0,4.8,1.4,4.8,4.2s-1.7,4.3-4.8,4.3h-3.3v-8.5H700.7z M433.3,209.6c3.2,0,4.8,1.4,4.8,4c0,2.7-1.7,4.2-4.8,4.2
			h-3.3v-8.2H433.3z M63.8,209.2c2.7,0,4.4,1.2,4.4,3.8c0,2.6-1.7,3.8-4.4,3.8h-3.7v-7.6H63.8z M100.9,211.3l3.9,11.9H97
			L100.9,211.3z M20.5,203.5h-8.3L0,236h8.2l2.2-6.6h11.8l2.2,6.6h8.4L20.5,203.5z M16.3,211.3l3.9,11.9h-7.8L16.3,211.3z
			 M233.3,236.8c-10.6,0-17.5-7.5-17.5-17.1c0-9.5,6.8-16.9,17.5-16.9c10.6,0,17.5,7.5,17.5,16.9
			C250.8,229.3,243.9,236.8,233.3,236.8L233.3,236.8z M233.3,230.1c5.1,0,8.8-4,8.8-10.4c0-6.4-3.8-10.3-8.8-10.3
			c-5.1,0-8.8,3.9-8.8,10.3C224.4,226.1,228.2,230.1,233.3,230.1L233.3,230.1z M316.9,203.5h-8.3L296.3,236h8.2l2.2-6.6h11.8
			l2.2,6.6h8.4L316.9,203.5z M312.7,211.3l3.9,11.9h-7.8L312.7,211.3z M531.7,203.5h-8.3L511.2,236h8.2l2.2-6.6h11.8l2.2,6.6h8.4
			L531.7,203.5z M527.5,211.3l3.9,11.9h-7.8L527.5,211.3z M589.2,227.4c-3.2,2-5.8,2.8-8.5,2.8c-6.1,0-10.2-4.1-10.2-10.3
			c0-6.1,4.1-10.2,10-10.2c2.7,0,5.4,0.7,8.3,2.8v-7.5c-2.7-1.5-5.8-2.1-9.4-2.1c-10.8,0-17.7,7.5-17.7,16.9c0,9.7,6.7,17,17.8,17
			c3.7,0,6.8-0.6,9.7-2.1V227.4z M613.9,236.8c-10.6,0-17.5-7.5-17.5-17.1c0-9.5,6.8-16.9,17.5-16.9s17.5,7.5,17.5,16.9
			C631.4,229.3,624.5,236.8,613.9,236.8L613.9,236.8z M613.9,230.1c5.1,0,8.8-4,8.8-10.4c0-6.4-3.8-10.3-8.8-10.3
			c-5.1,0-8.8,3.9-8.8,10.3C605.1,226.1,608.8,230.1,613.9,230.1L613.9,230.1z M676.9,203.5h-9.7l-8.3,17.3l-8.1-17.3h-9.9V236h7.4
			v-22.2l10.6,22.2l10.5-22.1V236h7.5V203.5z M738.1,203.5h-8.3L717.6,236h8.2l2.2-6.6h11.8l2.2,6.6h8.4L738.1,203.5z M733.9,211.3
			l3.9,11.9H730L733.9,211.3z M788.8,203.5h-7.6v21.4l-13.8-21.4H759V236h7.6v-21.4l13.8,21.4h8.4V203.5z"/>
		<path class="st0" d="M84.5,171H68v-48.9L44.5,171L21,122.1V171H5V97.8h20.8l18.9,39.5l19-39.5h20.8V171z M118.8,171h50v-14h-32.2
			v-16.3H162v-13.6h-25.4v-15.3h29.5l3.1-14h-50.4V171z M256,171h-19.3l-16.1-28.9h-4.7V171h-17.5V97.8h28.1
			c18,0,25.9,8.8,25.9,22.1c0,10.3-4.8,17.3-14.7,20.1L256,171z M234.6,120.6c0-6.1-3.9-9.3-11.2-9.3h-7.5V130h7.5
			C230.7,130,234.6,126.9,234.6,120.6z M340.1,171h-19.3l-16.1-28.9H300V171h-17.5V97.8h28.1c18,0,25.9,8.8,25.9,22.1
			c0,10.3-4.8,17.3-14.7,20.1L340.1,171z M318.7,120.6c0-6.1-3.9-9.3-11.2-9.3H300V130h7.5C314.8,130,318.7,126.9,318.7,120.6z
			 M366.7,171h17.8v-5.9V97.8h-17.8V171z M419.2,171h49.2v-14.6H437V97.8h-17.8V171z M493.9,171h49.2v-14.6h-31.5V97.8h-17.8V171z"
			/>
	</g>
	<g>
		<g>
			<path class="st1" d="M749.8,165.1c0-3.2,2.7-5.8,6.1-5.8c3.3,0,6,2.6,6,5.8c0,3.3-2.7,5.9-6,5.9
				C752.5,171,749.8,168.4,749.8,165.1 M751,165.1c0,2.7,2.2,4.8,4.9,4.8c2.7,0,4.8-2.1,4.8-4.8c0-2.6-2.1-4.7-4.8-4.7
				C753.2,160.4,751,162.5,751,165.1"/>
			<path class="st1" d="M758.9,168.4h-1.1l-1.9-3h-1.2v3h-1v-6.6h2.9c0.6,0,1.1,0,1.6,0.3c0.5,0.3,0.7,0.9,0.7,1.4
				c0,1.3-0.9,1.8-2.1,1.8L758.9,168.4z M755.7,164.6c1,0,2.3,0.2,2.3-1c0-0.9-0.8-0.9-1.6-0.9h-1.7v2H755.7z"/>
		</g>
		<path class="st0" d="M629.3,65.2c-3.7-0.6-7.3-0.6-11.3,0l-1.1-2.2c3.5-2.8,10.4-2.6,13.6,0L629.3,65.2z M749.9,129.2
			c-10.7,31-9.2,37.2-9,41.8h-30.4c1.2-2.8,6.7-12.7,8-22.2c-1.4,1.2-7.7,6-16.6,2.6c-3.4,8.4-9,17.8-10.1,19.6h-26.9
			c3-5.1,10.2-14,13.7-27.4l-7.8,0.7l-0.5-6l-4.7,0.4c-0.6,8-1.3,17.2-1.3,17.2c-4.9,0.7-11.3,1.4-16.9,1.4c-2.3,0-9.9,0.4-17.5-6.3
			l0,0c-4.6-3.8-10.1-8.6-15.5-13.5c-0.5,11.5-3,30.7-3.4,33.6h-24.7c2.5-13.8,5.6-16.8-0.6-44.4c-1-4.5-0.8-10.1,1.7-14.6
			c-7.3-9.4-9.5-20.3-6.5-31.9l0,0c2.8-10.5,7.8-26.3,11.6-37.6l-7.4-0.9c-0.2-2.7,1.9-6.7,4.5-8.9c-3.7-4.6-5.2-9.3-5.2-13.6
			C585-0.4,604.9-0.2,611.7,0c-4.6,7.3-6.6,14-4.4,15.5c2.2,1.4,7.3-2.2,15.7-2.2c8.4,0,13.5,3.6,15.7,2.2c2.2-1.4,0.2-8.2-4.4-15.5
			c6.8-0.2,26.7-0.5,27.2,19.1c0,4.4-1.5,9.2-4.8,13.3c2.1,2.6,4.1,6.2,4.5,9.2l-8.7,0.2c1.7,3.3,3.2,5.8,3.4,6.2
			c6.4,11.4,12.5,20.3,17.8,26c11.5,12.5,27.9,17.7,39.4,18.5c12.9,0.9,20.6-1.7,23.4-7.8c1.8-3.8,1.7-7.6-0.1-11.1
			c-3.9-7.5-15.6-13.5-32.9-16.7c-15.7-2.9-27-7.5-30.9-20.2l0-0.1c-0.1-0.3-2.3-8,2.6-14.5c4-5.4,11.4-8.1,21.8-8.1h55.9
			c-0.3,0.5-4.4,9-9.7,14.5c-6.4,6.7-12.6,8.7-17.9,8.7c-8.6,0-13.6-5-17.6-9c-3.5-3.5-5.9-5.7-9.4-5.9c-0.9,0-12.4-0.6-16.4,4.7
			c-2.3,3-1.4,6.8-1.3,7.2c2.4,7.7,8.8,11.5,24.4,14.4c14.1,2.6,32.2,8.4,38.8,21.1c3,5.8,3.1,12.3,0.3,18.5
			c-3.1,6.7-9.3,10.8-18.5,12.2c6.5,7,8,13.2,12.5,19.6C739.8,122.6,743.8,126.4,749.9,129.2z M713.6,22.4c3.6,3.7,6.5,6.6,11.7,6.6
			c5,0,9.3-3.3,12.3-6.6H713.6z M606.3,129.9c-1.4-1.3-10.4-9.5-12.4-11.3c-2.1,5.3,7.1,24.5,2.8,44h7.2
			C605.2,151.5,606.7,136,606.3,129.9z M694.8,146.5c-1.1-1.2-2-2.6-2.8-4.1l-4.6,0.4c-1.9,8.3-4.9,15-7.5,19.8h7.1
			C689.2,158.7,692.5,152.4,694.8,146.5z M714.4,141c-2.9-1.3-13.3-3.2-15.7-3.9c1,2.7,3.6,6.2,7.8,7.1
			C710.6,145,713.3,142.5,714.4,141z M739.7,133c-6.6-5-8.8-7.8-13.3-16.2c-3-5.6-7.1-14.6-18.3-16.4l0,0
			c-12.7-1.8-28.9-7.9-40.7-20.7c-1.2-1.3-2.4-2.7-3.5-4.1c0.2,5.1-0.9,12.1-4.1,17.8l-6.5-5.8c1-2.4,1.8-5.1,2.1-8.4
			c0.7-8.2-1.6-17.4-7.1-27.5c-0.2-0.4-4.4-7.9-6.7-12.5l-7.8,11.2l1.3,4.4l-3.1,5.4l0,0c-4.4-1.1-12.1-1-16.5,0l-2.7-5.4h15.5
			c0,0,0.9-2.2,0.3-4.9c-2.2-9.3-1.6-18.8,10.4-19c1,0,2.4,0.1,3.6,0.1c7.2-0.2,10.4-7.3,10.4-11.9c0-5.1-3.8-10-7.9-10.6
			c1.7,3.1,1.5,8.3,0.5,10.3c-0.9,2-3.5,5.1-7.7,5.1c-2.8,0-7.9-2.3-15-2.3h0h0c-7.2,0-12.2,2.3-15,2.3c-4.2,0-6.8-3.1-7.7-5.1
			c-1-2.1-1.2-7.2,0.5-10.3c-4,0.5-7.9,5.4-7.9,10.6c0.1,6,5.3,12.5,12,13.7c-0.7,1.9-0.9,2.4-2.7,7.9c-3.8,10.8-9.8,29.7-12.9,41.3
			l0,0c-3,11.4,0.3,21.6,10,30.1c2.1,1.8,18.1,16.5,23.2,21.1c0-5.5,1.8-12.2,6.9-20.2l6.3,5.6c-4.8,7.9-6.1,15-3.8,20.7
			c1.9,4.6,6.1,8.1,11.4,9.2c2.6,0.6,8.6,0.2,13.3-0.2c0.2-2.2,0.4-5.4,0.7-9.1l-13.7,1.1c3-3.3,6.7-11.7,6.7-19.5h8.3
			c0,3.3-0.5,6.8-1.4,10l20.7-1.6l0.5,5.9l11.2-1c0-0.2,0-0.3,0-0.5c-5.8-2.9-12.2-11.6-9.3-24.5h8.7c-2,5-1.7,13.4,4.1,16.9
			c3.4,2.1,8.8,3.2,13.6,4.2c8.4,1.8,18,3.8,19.9,12.7c1.2,5.8-1.2,14-3.3,19.6h9.2C733.6,152,738.9,135.6,739.7,133z M631.8,42.7
			c4.7-0.2,7-3.3,6.8-7.5C633.9,35.3,631.6,38.5,631.8,42.7z M608.6,34.6c-0.2,4.9,2.5,8.5,7.9,8.7C616.7,38.4,614,34.8,608.6,34.6z
			"/>
	</g>
</g>
</svg>
