<?xml version="1.0" encoding="utf-8"?>
<!-- Generator: Adobe Illustrator 26.5.1, SVG Export Plug-In . SVG Version: 6.00 Build 0)  -->
<svg version="1.1" id="ICON_STROKE" xmlns="http://www.w3.org/2000/svg" xmlns:xlink="http://www.w3.org/1999/xlink" x="0px"
	 y="0px" viewBox="0 0 29.5 20.5" style="enable-background:new 0 0 29.5 20.5;" xml:space="preserve">
<style type="text/css">
	.st0{fill:none;}
	.st1{fill:#012269;}
</style>
<rect x="-3.2" y="-7.8" class="st0" width="36" height="36"/>
<rect x="4.2" y="13.5" class="st1" width="6" height="1"/>
<path class="st1" d="M7.9,9.2c0.8,0,1.4-0.6,1.4-1.4V4.4C9.2,3.6,8.6,3,7.9,3H4.4C3.6,3,3,3.6,3,4.4v3.5c0,0.8,0.6,1.4,1.4,1.4h3.5
	V9.2z M4,7.9V4.4C4,4.2,4.2,4,4.4,4h3.5c0.2,0,0.4,0.2,0.4,0.4v3.5c0,0.2-0.2,0.4-0.4,0.4H4.4C4.2,8.2,4,8.1,4,7.9z"/>
<path class="st1" d="M26.5,0H3C1.3,0,0,1.4,0,3.1v14.3c0,1.7,1.3,3.1,3,3.1h23.5c1.6,0,3-1.4,3-3.1V3.1C29.5,1.4,28.2,0,26.5,0z
	 M28.5,17.4c0,1.2-0.9,2.1-2,2.1H3c-1.1,0-2-0.9-2-2.1V3.1C1,1.9,1.9,1,3,1h23.5c1.1,0,2,0.9,2,2.1V17.4z"/>
<rect x="11.8" y="13.5" class="st1" width="6" height="1"/>
<rect x="19.2" y="13.5" class="st1" width="6" height="1"/>
</svg>
