<?xml version="1.0" encoding="utf-8"?>
<!-- Generator: Adobe Illustrator 26.5.1, SVG Export Plug-In . SVG Version: 6.00 Build 0)  -->
<svg version="1.1" id="Layer_1" xmlns="http://www.w3.org/2000/svg" xmlns:xlink="http://www.w3.org/1999/xlink" x="0px" y="0px"
	 viewBox="0 0 18.7 20.8" style="enable-background:new 0 0 18.7 20.8;" xml:space="preserve">
<style type="text/css">
	.st0{fill:none;}
	.st1{fill:#E31837;}
</style>
<g id="_24_X_24_BOX">
	<rect x="-2.6" y="-1.5" class="st0" width="24" height="24"/>
</g>
<g id="ICON_OUTLINE">
	<path class="st1" d="M18.4,14.8L16,12.2v-1.9c0-4.7-2.3-7.6-6.2-7.8v-2h-1v2C5,2.7,2.7,5.6,2.7,10.3v1.9l-2.3,2.6v2.7h5.3
		c0.4,2,2.4,3.3,4.4,2.9c1.5-0.3,2.6-1.5,2.9-2.9h5.3V14.8z M9.4,19.5c-1.2,0-2.3-0.8-2.6-2H12C11.7,18.6,10.6,19.5,9.4,19.5z
		 M17.4,16.5h-16v-1.3l2.3-2.6v-2.3c0-4.3,2.1-6.8,5.7-6.8S15,5.9,15,10.3v2.3l2.3,2.6V16.5z"/>
</g>
</svg>
