<svg width="75" height="75" viewBox="0 0 75 75" fill="none" xmlns="http://www.w3.org/2000/svg">
<path fill-rule="evenodd" clip-rule="evenodd" d="M40.6248 6.24902H39.0623V35.9365H68.7498V34.374C68.7326 18.8482 56.1507 6.26625 40.6248 6.24902ZM42.1873 32.8114V9.4239C54.7569 10.2255 64.7733 20.2418 65.5748 32.8114H42.1873ZM9.37488 40.624C9.37488 54.4311 20.5678 65.624 34.3749 65.624C48.1756 65.6085 59.3594 54.4247 59.3749 40.624H62.4999C62.4999 56.157 49.9079 68.749 34.3749 68.749C18.8419 68.749 6.24988 56.157 6.24988 40.624C6.24988 25.091 18.8419 12.499 34.3749 12.499V15.624C20.5678 15.624 9.37488 26.8169 9.37488 40.624Z" fill="black"/>
</svg>
