<?xml version="1.0" encoding="UTF-8"?>
<svg width="75px" height="75px" viewBox="0 0 75 75" version="1.1" xmlns="http://www.w3.org/2000/svg" xmlns:xlink="http://www.w3.org/1999/xlink">
    <title>creditcarddebt-icon</title>
    <g id="creditcarddebt-icon" stroke="none" stroke-width="1" fill="none" fill-rule="evenodd">
        <g id="icons/finance/cashflow">
            <g id="Group" fill="#FFFFFF" opacity="0">
                <g id="icon-bounding-box">
                    <rect id="Ø-library-elements/Icons/icon-bounding-box" x="0" y="0" width="75" height="75"></rect>
                </g>
            </g>
            <path d="M62.028125,15.625 C65.7329781,15.7069688 68.6907711,18.705795 68.7501658,22.3831268 L68.7501729,52.6167261 C68.69225,56.2118889 65.8638923,59.1590524 62.2747558,59.3653316 L62.034375,59.375 L12.971875,59.375 C9.26702193,59.2930312 6.30922893,56.294205 6.24983418,52.6168732 L6.25,52.38125 L6.25,22.61875 C6.18508477,18.9135589 9.06434093,15.8392489 12.7364303,15.6341718 L12.971875,15.625 L62.028125,15.625 Z M62.034375,18.75 L12.971875,18.75 C10.9803258,18.8303362 9.41217816,20.4505065 9.3737072,22.4206166 L9.375,22.61875 L9.375,52.38125 C9.31026332,54.3733673 10.8120791,56.055208 12.7741724,56.2368777 L12.971875,56.25 L62.028125,56.25 C64.0196742,56.1696638 65.5878218,54.5494935 65.6262928,52.5793834 L65.625,52.38125 L65.625,22.61875 C65.6919597,20.5625671 64.0898351,18.8363441 62.034375,18.75 Z M28.125,43.75 L28.125,46.875 L15.625,46.875 L15.625,43.75 L28.125,43.75 Z M43.75,43.75 L43.75,46.875 L31.25,46.875 L31.25,43.75 L43.75,43.75 Z M59.375,43.75 L59.375,46.875 L46.875,46.875 L46.875,43.75 L59.375,43.75 Z M23.178125,21.875 C25.0465496,21.8767228 26.5607772,23.3909504 26.5625,25.259375 L26.5625,25.259375 L26.5625,32.553125 C26.5607772,34.4215496 25.0465496,35.9357772 23.178125,35.9375 L23.178125,35.9375 L15.884375,35.9375 C14.0159504,35.9357772 12.5017228,34.4215496 12.5,32.553125 L12.5,32.553125 L12.5,25.259375 C12.5017228,23.3909504 14.0159504,21.8767228 15.884375,21.875 L15.884375,21.875 Z M23.178125,25 L15.884375,25 C15.7425157,25.0033004 15.6283004,25.1175157 15.625,25.259375 L15.625,25.259375 L15.625,32.553125 C15.6283004,32.6949843 15.7425157,32.8091996 15.884375,32.8125 L15.884375,32.8125 L23.178125,32.8125 C23.3199843,32.8091996 23.4341996,32.6949843 23.4375,32.553125 L23.4375,32.553125 L23.4375,25.259375 C23.4341996,25.1175157 23.3199843,25.0033004 23.178125,25 L23.178125,25 Z" id="icon" fill="#000000"></path>
        </g>
    </g>
</svg>