<svg xmlns="http://www.w3.org/2000/svg" viewBox="0 0 24 24"><defs><style>.cls-1{fill:none;}.cls-2{fill:#012169;}</style></defs><title>bofa_icon_rewards2_280rgb</title><g id="Layer_2" data-name="Layer 2"><rect class="cls-1" width="24" height="24"/></g><g id="Adjusted_copy" data-name="Adjusted copy"><path class="cls-2" d="M12,5.675A6.325,6.325,0,1,0,18.325,12,6.333,6.333,0,0,0,12,5.675Zm0,11.65A5.325,5.325,0,1,1,17.325,12,5.33,5.33,0,0,1,12,17.325Z"/><path class="cls-2" d="M12.5,9.156V8h-1V9.156A1.816,1.816,0,0,0,9.9,10.8c0,.942.7,1.528,2.036,1.694,1.162.147,1.162.552,1.162.7,0,.372-.514.7-1.1.7s-1.1-.327-1.1-.7V13h-1v.2a1.816,1.816,0,0,0,1.6,1.645V16h1V14.844A1.816,1.816,0,0,0,14.1,13.2c0-.942-.7-1.528-2.038-1.7-1.16-.145-1.16-.55-1.16-.7,0-.372.514-.7,1.1-.7s1.1.327,1.1.7V11h1v-.2A1.816,1.816,0,0,0,12.5,9.156Z"/><path class="cls-2" d="M22,12,19.925,9.292,20.09,5.82,16.9,4.911,15.09,2,12,3.238,8.91,2,7.1,4.911,3.91,5.82l.165,3.472L2,12l2.075,2.708L3.91,18.18l3.192.909L8.91,22,12,20.762,15.09,22,16.9,19.089l3.192-.909-.165-3.472Zm-3.073,2.755.127,2.681-2.429.691-.372.106-.2.328-1.366,2.2-2.311-.926L12,19.685l-.372.149-2.311.926-1.366-2.2-.2-.328-.371-.106-2.43-.691.127-2.681.018-.365L4.868,14.1,3.26,12,4.868,9.9l.223-.291-.018-.365L4.946,6.564l2.43-.691.371-.106.2-.328,1.366-2.2,2.311.926L12,4.315l.372-.149,2.311-.926,1.366,2.2.2.328.372.106,2.429.691-.127,2.681-.018.365.223.291L20.74,12l-1.608,2.1-.223.291Z"/></g></svg>