<?xml version="1.0" encoding="utf-8"?>
<!-- Generator: Adobe Illustrator 27.9.1, SVG Export Plug-In . SVG Version: 6.00 Build 0)  -->
<svg version="1.1" id="Layer_2" xmlns="http://www.w3.org/2000/svg" xmlns:xlink="http://www.w3.org/1999/xlink" x="0px" y="0px"
	 viewBox="0 0 357.15 172.12" style="enable-background:new 0 0 357.15 172.12;" xml:space="preserve">
<style type="text/css">
	.st0{fill:#780032;}
	.st1{fill:#E31837;}
	.st2{fill:#FFFFFF;}
</style>
<g>
	<g>
		<polygon class="st0" points="302.03,64.07 0.5,41.65 9.89,22.28 327.74,51.67 		"/>
		<polygon class="st0" points="172.06,146.5 300.71,146.5 327.81,134.75 211.49,136.46 		"/>
		<polygon class="st1" points="307.26,37.51 0.5,41.65 1.4,4.61 326.12,0.94 		"/>
		<polygon class="st1" points="327.81,134.75 101.86,138.07 101.93,52.59 327.74,51.67 		"/>
		<polygon class="st1" points="345.04,168.63 177.82,171.18 172.06,146.5 356.33,143.08 		"/>
	</g>
	<g>
		<path class="st2" d="M21.35,18.46c0.02,2.89,0.06,5.64,0.14,10.14l-2.05,0.01l-0.08-13.23l2.16-0.01l5.64,7.97l1.49,2.18h0.03
			l-0.06-10.19l2.03-0.01l0.05,13.23l-1.95,0.01l-6.21-8.67c-0.39-0.57-0.71-0.96-1.1-1.53L21.35,18.46z"/>
		<path class="st2" d="M34.23,28.53l-0.08-13.26l9.15-0.06l0.01,1.66l-7.02,0.04l0.02,3.82l6-0.04l0.01,1.59l-6,0.04l0.03,4.52
			l7.36-0.04l0.01,1.66L34.23,28.53z"/>
		<path class="st2" d="M53.2,18.04l-0.73,3.49l-1.6,6.9l-2.42,0.01l-3.64-13.19l2.11-0.01l2,7.63l0.72,3.14l0.1,0l0.63-3.02
			l1.9-7.79l1.98-0.01l2.28,7.71l0.77,2.99l0.16,0l0.68-3.12l1.88-7.6l2.03-0.01l-3.46,13.23l-2.26,0.01l-2.07-6.98l-0.91-3.38
			L53.2,18.04z"/>
		<path class="st2" d="M81.73,27.72c-1.09,0.42-2.88,0.67-4.26,0.68c-4.68,0.03-6.33-2.67-6.36-6.62c-0.02-2.86,1.23-6.95,6.41-6.98
			c1.64-0.01,2.89,0.24,3.8,0.55l-0.35,1.56c-1.46-0.38-2.66-0.43-3.38-0.42c-3.02,0.02-4.33,2-4.31,5.28
			c0.02,3.02,1.02,5.01,4.5,4.99c0.78,0,2.34-0.17,3.53-0.52L81.73,27.72z"/>
		<path class="st2" d="M92.18,28.18l-0.04-6.14l-6.42,0.04l0.06,6.14l-2.11,0.01L83.6,14.99l2.11-0.01l0.01,5.49l6.42-0.04
			l-0.03-5.49l2.08-0.01l0.08,13.23L92.18,28.18z"/>
		<path class="st2" d="M97.77,28.14l-0.08-13.26l9.15-0.06l0.01,1.66l-7.02,0.04l0.02,3.82l6.01-0.04l0.01,1.59l-6.01,0.04
			l0.03,4.52l7.36-0.04l0.01,1.66L97.77,28.14z"/>
		<path class="st2" d="M120.18,27.49c-1.09,0.42-2.88,0.67-4.26,0.68c-4.68,0.03-6.33-2.67-6.36-6.62
			c-0.02-2.86,1.23-6.95,6.41-6.98c1.64-0.01,2.89,0.24,3.8,0.55l-0.35,1.56c-1.46-0.38-2.66-0.43-3.38-0.42
			c-3.02,0.02-4.33,2-4.31,5.28c0.02,3.02,1.02,5.01,4.5,4.99c0.78,0,2.34-0.17,3.53-0.52L120.18,27.49z"/>
		<path class="st2" d="M124.76,27.98l-2.11,0.01l-0.08-13.26l2.11-0.01l0.03,5.67l5.79-5.7l2.5-0.01l-5.58,5.36l5.79,7.9l-2.42,0.01
			l-4.77-6.58l-1.29,1.26L124.76,27.98z"/>
		<path class="st2" d="M135.42,27.92l-0.08-13.26l2.11-0.01l0.08,13.26L135.42,27.92z"/>
		<path class="st2" d="M143.08,17.73c0.02,2.89,0.06,5.64,0.14,10.14l-2.05,0.01l-0.08-13.23l2.16-0.01l5.64,7.97l1.49,2.18h0.03
			l-0.06-10.19l2.03-0.01l0.05,13.23l-1.95,0.01l-6.21-8.67c-0.39-0.57-0.71-0.96-1.1-1.53L143.08,17.73z"/>
		<path class="st2" d="M162.26,20.81l4.13,0l0.04,6.4c-1.48,0.48-3.09,0.69-4.52,0.7c-4.73,0.03-6.31-2.72-6.33-6.67
			c-0.02-2.89,1.21-6.92,6.69-6.96c1.46-0.01,2.81,0.22,3.8,0.5l-0.3,1.54c-1.38-0.36-2.5-0.43-3.25-0.42
			c-3.35,0.02-4.8,2.08-4.78,5.39c0.02,2.73,0.81,5.04,4.35,5.02c0.68,0,1.77-0.11,2.39-0.3l-0.02-3.67l-2.18,0.01L162.26,20.81z"/>
		<path class="st2" d="M186.89,27.09c-1.09,0.42-2.88,0.67-4.26,0.68c-4.68,0.03-6.33-2.67-6.36-6.62
			c-0.02-2.86,1.23-6.95,6.41-6.98c1.64-0.01,2.89,0.24,3.8,0.55l-0.35,1.56c-1.46-0.38-2.66-0.43-3.38-0.42
			c-3.02,0.02-4.33,2-4.31,5.28c0.02,3.02,1.02,5.01,4.5,4.99c0.78,0,2.34-0.17,3.53-0.52L186.89,27.09z"/>
		<path class="st2" d="M200.46,22.71c0.02,2.96-1.79,4.95-5.61,4.97c-3.98,0.02-5.63-1.81-5.65-4.91l-0.05-8.45l2.05-0.01l0.05,8.45
			c0.01,2.29,1.32,3.45,3.58,3.44c2.29-0.01,3.58-1.19,3.57-3.48l-0.05-8.45l2.03-0.01L200.46,22.71z"/>
		<path class="st2" d="M205.58,17.67c0.01,1.3,1.65,1.63,3.21,2.11c2.24,0.69,4.43,1.64,4.44,3.95c0.02,2.57-2.26,3.89-5.38,3.91
			c-1.53,0.01-3.25-0.27-4.76-1.01l0.64-1.51c2.06,0.85,3.1,0.89,3.98,0.89c2.18-0.01,3.48-0.52,3.47-2.23
			c-0.01-1.14-1.16-1.76-2.9-2.27c-2.45-0.71-4.77-1.3-4.78-3.61c-0.01-2.42,2.06-3.86,4.92-3.88c1.14-0.01,2.78,0.19,4.09,0.86
			l-0.62,1.46c-1.36-0.62-2.73-0.76-3.49-0.76C206.76,15.58,205.57,16.18,205.58,17.67z"/>
		<path class="st2" d="M219.37,27.41l-0.1-11.65l-4.65,0.03l-0.01-1.61l11.34-0.07l0.01,1.61l-4.6,0.03l0.04,11.65L219.37,27.41z"/>
		<path class="st2" d="M233.8,27.48c-4.6,0.03-6.36-2.59-6.38-6.64c-0.02-3.67,1.6-6.95,6.3-6.98c4.71-0.03,6.1,3.27,6.12,6.85
			C239.86,24.56,237.85,27.46,233.8,27.48z M233.72,15.39c-3.35,0.02-4.17,2.7-4.15,5.49c0.02,3.33,1.28,5.11,4.22,5.1
			c2.68-0.02,3.91-2.36,3.89-5.2C237.67,18.28,237.03,15.37,233.72,15.39z"/>
		<path class="st2" d="M250.24,24.7l4.67-10.74l2.34-0.01l0.08,13.23l-2.03,0.01l-0.06-9.44l-0.1,0l-4.18,9.46l-1.53,0.01
			l-4.32-9.46l-0.1,0l0.06,9.49l-2.03,0.01l-0.08-13.23l2.37-0.01l4.8,10.68L250.24,24.7z"/>
		<path class="st2" d="M260.78,27.16L260.7,13.9l9.15-0.06l0.01,1.66l-7.02,0.04l0.02,3.82l6.01-0.04l0.01,1.59l-6.01,0.04
			l0.03,4.52l7.36-0.04l0.01,1.66L260.78,27.16z"/>
		<path class="st2" d="M279.91,21.27l3.23,5.75l-2.21,0.01l-3.02-5.52l-2.94,0.02l0.03,5.54l-2.13,0.01l-0.08-13.26l5.33-0.03
			c3.15-0.02,4.66,1.61,4.68,3.77C282.81,19.12,281.81,20.79,279.91,21.27z M277.9,20.04c1.61-0.01,2.78-0.61,2.77-2.41
			c-0.01-1.64-1.26-2.31-2.85-2.3l-2.91,0.02l0.03,4.71L277.9,20.04z"/>
		<path class="st2" d="M287.68,17.17c0.01,1.3,1.65,1.63,3.21,2.11c2.24,0.69,4.43,1.64,4.44,3.95c0.02,2.57-2.26,3.89-5.38,3.91
			c-1.53,0.01-3.25-0.27-4.76-1.01l0.64-1.51c2.06,0.85,3.1,0.89,3.98,0.89c2.18-0.01,3.48-0.52,3.47-2.23
			c-0.01-1.14-1.16-1.76-2.9-2.27c-2.45-0.71-4.77-1.3-4.78-3.61c-0.01-2.42,2.06-3.86,4.92-3.88c1.14-0.01,2.78,0.19,4.09,0.86
			l-0.62,1.46c-1.36-0.62-2.73-0.76-3.49-0.76C288.87,15.08,287.68,15.69,287.68,17.17z"/>
	</g>
	<g>
		<path class="st2" d="M134.11,96.8c-3.52-0.1-7.29-0.89-10.29-2.62l1.57-4.15c4.2,1.94,7.66,2.26,9.97,2.26
			c4.2,0,6.82-1.47,6.82-5.46c0-3.36-2.57-4.51-6.19-5.51c-5.98-1.68-11.49-3.1-11.49-9.81c0-5.56,3.62-9.29,9.6-9.97V56.5h3.62
			v4.98c2.62,0.16,5.67,0.79,8.19,2.15l-1.57,4.04c-3.52-1.47-5.93-1.68-8.19-1.68c-3.41,0-5.88,1.78-5.88,5.3
			c0,3.2,3.52,4.15,7.03,5.04c4.62,1.26,10.71,2.78,10.71,10.5c0,5.98-4.2,9.34-10.29,9.92v5.14h-3.62V96.8z"/>
		<path class="st2" d="M181.48,92.2c9.27,1.71,13.95,8.46,13.95,16.2c0,10.44-8.55,19.08-22.95,19.08c-6.75,0-14.31-1.17-19.62-4.23
			l2.79-7.47c8.28,3.33,12.51,3.6,15.48,3.6c9.36,0,13.86-4.86,13.95-10.35c0.09-8.55-6.48-12.06-18.72-12.24v-6.93
			c11.97-0.54,16.02-5.94,16.02-10.8c0-3.78-2.7-7.02-8.91-7.02c-3.15,0-8.19,0.45-16.2,4.59l-2.79-7.2
			c6.75-3.78,13.95-5.58,19.35-5.58c13.14,0,18.81,6.93,18.81,14.31c0,4.59-2.88,11.16-11.16,13.77V92.2z"/>
		<path class="st2" d="M222.25,127.39c-18.9,0-23.31-15.12-23.31-31.14c0-14.94,4.5-32.22,23.4-32.22
			c19.26,0,22.86,17.82,22.86,31.95C245.2,111.64,239.62,127.39,222.25,127.39z M222.34,72.04c-11.79,0-13.32,14.04-13.32,24.3
			c0,12.87,2.25,23.13,13.32,23.13c10.35,0,12.78-11.79,12.78-23.22C235.12,86.53,234.22,72.04,222.34,72.04z"/>
		<path class="st2" d="M273.45,127.39c-18.9,0-23.31-15.12-23.31-31.14c0-14.94,4.5-32.22,23.4-32.22
			c19.26,0,22.86,17.82,22.86,31.95C296.4,111.64,290.82,127.39,273.45,127.39z M273.54,72.04c-11.79,0-13.32,14.04-13.32,24.3
			c0,12.87,2.25,23.13,13.32,23.13c10.35,0,12.78-11.79,12.78-23.22C286.32,86.53,285.42,72.04,273.54,72.04z"/>
	</g>
	<g>
		<path class="st2" d="M215.54,163.85c-1.09,0.43-2.88,0.69-4.26,0.71c-4.68,0.06-6.35-2.62-6.41-6.57
			c-0.04-2.86,1.18-6.96,6.35-7.03c1.64-0.02,2.89,0.22,3.8,0.52l-0.34,1.56c-1.46-0.37-2.66-0.41-3.39-0.4
			c-3.02,0.04-4.31,2.04-4.27,5.31c0.04,3.02,1.06,5,4.54,4.96c0.78-0.01,2.34-0.19,3.53-0.54L215.54,163.85z"/>
		<path class="st2" d="M226.49,164.22l-1.32-3.62l-5.28,0.07c-0.25,0.76-0.48,1.28-1.25,3.66l-2.18,0.03l4.73-13.33l2.5-0.03
			l5.07,13.19L226.49,164.22z M222.95,154.34c-0.13-0.31-0.41-1.22-0.51-1.53h-0.03c-0.1,0.31-0.37,1.23-0.5,1.54
			c-0.6,1.75-0.94,3.11-1.54,4.86l4.32-0.06C224,157.42,223.62,156.1,222.95,154.34z"/>
		<path class="st2" d="M232.33,154.31c0.02,1.3,1.66,1.61,3.23,2.09c2.25,0.67,4.44,1.6,4.47,3.92c0.04,2.57-2.23,3.91-5.35,3.95
			c-1.53,0.02-3.25-0.24-4.77-0.98l0.63-1.52c2.07,0.83,3.11,0.87,3.99,0.86c2.18-0.03,3.48-0.54,3.45-2.26
			c-0.02-1.14-1.17-1.75-2.92-2.25c-2.45-0.69-4.78-1.26-4.81-3.57c-0.03-2.42,2.03-3.88,4.89-3.92c1.14-0.02,2.79,0.17,4.09,0.83
			l-0.6,1.46c-1.36-0.61-2.74-0.74-3.49-0.73C233.5,152.22,232.31,152.83,232.33,154.31z"/>
		<path class="st2" d="M251.19,163.88l-0.08-6.14l-6.42,0.09l0.11,6.14l-2.1,0.03l-0.18-13.23l2.1-0.03l0.05,5.49l6.42-0.09
			l-0.08-5.49l2.08-0.03l0.18,13.23L251.19,163.88z"/>
		<path class="st2" d="M269.8,163.78c-4.6,0.06-6.38-2.54-6.44-6.6c-0.05-3.67,1.54-6.96,6.25-7.03c4.71-0.06,6.13,3.22,6.18,6.81
			C275.85,160.81,273.86,163.73,269.8,163.78z M269.64,151.69c-3.35,0.05-4.15,2.74-4.11,5.52c0.04,3.33,1.32,5.1,4.26,5.06
			c2.68-0.04,3.89-2.39,3.85-5.23C273.6,154.55,272.94,151.65,269.64,151.69z"/>
		<path class="st2" d="M279,163.5l-0.18-13.26l9.1-0.12l0.02,1.66l-7.02,0.1l0.05,3.8l5.56-0.08l0.02,1.61l-5.56,0.08l0.08,6.19
			L279,163.5z"/>
		<path class="st2" d="M290.31,163.35l-0.18-13.26l9.1-0.12l0.02,1.66l-7.02,0.1l0.05,3.8l5.56-0.08l0.02,1.61l-5.56,0.08l0.08,6.19
			L290.31,163.35z"/>
		<path class="st2" d="M301.62,163.19l-0.18-13.26l9.15-0.13l0.02,1.66l-7.02,0.1l0.05,3.82l6-0.08l0.02,1.59l-6,0.08l0.06,4.52
			l7.36-0.1l0.02,1.66L301.62,163.19z"/>
		<path class="st2" d="M320.57,157.16l3.28,5.73l-2.21,0.03l-3.07-5.5l-2.94,0.04l0.08,5.54l-2.13,0.03l-0.18-13.26l5.33-0.07
			c3.14-0.04,4.68,1.57,4.71,3.73C323.45,154.99,322.46,156.66,320.57,157.16z M318.55,155.94c1.61-0.02,2.77-0.64,2.75-2.43
			c-0.02-1.64-1.28-2.3-2.87-2.28l-2.91,0.04l0.06,4.71L318.55,155.94z"/>
	</g>
</g>
</svg>
